# xmcd
#
# Track frame offsets: 
#        150
#        17900
#        31602
#        49407
#        67302
#        84964
#        99250
#        117358
#        134769
#        154488
#        170657
#        192208
#        213314
#        240380
#
# Disc length: 3289 seconds
#
# Revision: 0
# Processed by: cddbd v1.5.2PL0 Copyright (c) Steve Scherf et al.
# Submitted via: ExactAudioCopy v1.3
#
DISCID=c30cd70e
DTITLE=Fathead - Where's Your Head At
DYEAR=2000
DGENRE=Blues
TTITLE0=Somebody Else's But Mine
TTITLE1=I Keep Holdin' On
TTITLE2=Move On Up
TTITLE3=Hip Pocket
TTITLE4=Charmalene
TTITLE5=Walk Backwards
TTITLE6=Meet Me In The Middle
TTITLE7=You're The One
TTITLE8=Blue Water
TTITLE9=Mama's Boy
TTITLE10=Commit A Crime
TTITLE11=There's No Witness
TTITLE12=Give It Up
TTITLE13=Hymn For Her
EXTD=
EXTT0=
EXTT1=
EXTT2=
EXTT3=
EXTT4=
EXTT5=
EXTT6=
EXTT7=
EXTT8=
EXTT9=
EXTT10=
EXTT11=
EXTT12=
EXTT13=
PLAYORDER=
